<?xml version="1.0" encoding="UTF-8"?>
<!DOCTYPE svg
PUBLIC "-//W3C//DTD SVG 1.1//EN"
       "http://www.w3.org/Graphics/SVG/1.1/DTD/svg11.dtd">
<svg viewBox="35 55 1474 745" width="1439px" height="690px" xmlns="http://www.w3.org/2000/svg" version="1.1">
   <line x1="187" y1="440" x2="197" y2="440" style="stroke:#bbb;stroke-width:1;"/>
   <line x1="500" y1="170" x2="510" y2="170" style="stroke:#bbb;stroke-width:1;"/>
   <line x1="197" y1="440" x2="500" y2="170" style="stroke:#bbb;stroke-width:1;"/>
   <line x1="194.5" y1="440" x2="190.96446609407" y2="443.53553390593" style="stroke:#bbb;stroke-width:2;"/>
   <line x1="194.5" y1="440" x2="190.96446609407" y2="436.46446609407" style="stroke:#bbb;stroke-width:2;"/>
   <line x1="505" y1="170" x2="501.46446609407" y2="173.53553390593" style="stroke:#bbb;stroke-width:2;"/>
   <line x1="505" y1="170" x2="501.46446609407" y2="166.46446609407" style="stroke:#bbb;stroke-width:2;"/>
   <line x1="510" y1="410" x2="500" y2="410" style="stroke:#b0b;stroke-width:1;"/>
   <line x1="416" y1="690" x2="406" y2="690" style="stroke:#b0b;stroke-width:1;"/>
   <line x1="500" y1="410" x2="416" y2="690" style="stroke:#b0b;stroke-width:1;"/>
   <line x1="502.5" y1="410" x2="506.03553390593" y2="413.53553390593" style="stroke:#b0b;stroke-width:2;"/>
   <line x1="502.5" y1="410" x2="506.03553390593" y2="406.46446609407" style="stroke:#b0b;stroke-width:2;"/>
   <line x1="411" y1="690" x2="414.53553390593" y2="693.53553390593" style="stroke:#b0b;stroke-width:2;"/>
   <line x1="411" y1="690" x2="414.53553390593" y2="686.46446609407" style="stroke:#b0b;stroke-width:2;"/>
   <line x1="510" y1="430" x2="500" y2="430" style="stroke:#b0b;stroke-width:1;"/>
   <line x1="500" y1="680" x2="510" y2="680" style="stroke:#b0b;stroke-width:1;"/>
   <line x1="500" y1="430" x2="500" y2="680" style="stroke:#b0b;stroke-width:1;"/>
   <line x1="502.5" y1="430" x2="506.03553390593" y2="433.53553390593" style="stroke:#b0b;stroke-width:2;"/>
   <line x1="502.5" y1="430" x2="506.03553390593" y2="426.46446609407" style="stroke:#b0b;stroke-width:2;"/>
   <line x1="505" y1="680" x2="501.46446609407" y2="683.53553390593" style="stroke:#b0b;stroke-width:2;"/>
   <line x1="505" y1="680" x2="501.46446609407" y2="676.46446609407" style="stroke:#b0b;stroke-width:2;"/>
   <line x1="900" y1="120" x2="890" y2="120" style="stroke:#333;stroke-width:1;"/>
   <line x1="665" y1="170" x2="655" y2="170" style="stroke:#333;stroke-width:1;"/>
   <line x1="890" y1="120" x2="665" y2="170" style="stroke:#333;stroke-width:1;"/>
   <line x1="892.5" y1="120" x2="896.03553390593" y2="123.53553390593" style="stroke:#333;stroke-width:2;"/>
   <line x1="892.5" y1="120" x2="896.03553390593" y2="116.46446609407" style="stroke:#333;stroke-width:2;"/>
   <line x1="660" y1="170" x2="663.53553390593" y2="173.53553390593" style="stroke:#333;stroke-width:2;"/>
   <line x1="660" y1="170" x2="663.53553390593" y2="166.46446609407" style="stroke:#333;stroke-width:2;"/>
   <line x1="1066" y1="140" x2="1076" y2="140" style="stroke:#b0b;stroke-width:1;"/>
   <line x1="1330" y1="320" x2="1340" y2="320" style="stroke:#b0b;stroke-width:1;"/>
   <line x1="1076" y1="140" x2="1330" y2="320" style="stroke:#b0b;stroke-width:1;"/>
   <line x1="1073.5" y1="140" x2="1069.9644660941" y2="143.53553390593" style="stroke:#b0b;stroke-width:2;"/>
   <line x1="1073.5" y1="140" x2="1069.9644660941" y2="136.46446609407" style="stroke:#b0b;stroke-width:2;"/>
   <line x1="1335" y1="320" x2="1331.4644660941" y2="323.53553390593" style="stroke:#b0b;stroke-width:2;"/>
   <line x1="1335" y1="320" x2="1331.4644660941" y2="316.46446609407" style="stroke:#b0b;stroke-width:2;"/>
   <line x1="920" y1="270" x2="910" y2="270" style="stroke:#333;stroke-width:1;"/>
   <line x1="665" y1="170" x2="655" y2="170" style="stroke:#333;stroke-width:1;"/>
   <line x1="910" y1="270" x2="665" y2="170" style="stroke:#333;stroke-width:1;"/>
   <line x1="912.5" y1="270" x2="916.03553390593" y2="273.53553390593" style="stroke:#333;stroke-width:2;"/>
   <line x1="912.5" y1="270" x2="916.03553390593" y2="266.46446609407" style="stroke:#333;stroke-width:2;"/>
   <line x1="660" y1="170" x2="663.53553390593" y2="173.53553390593" style="stroke:#333;stroke-width:2;"/>
   <line x1="660" y1="170" x2="663.53553390593" y2="166.46446609407" style="stroke:#333;stroke-width:2;"/>
   <line x1="890" y1="560" x2="880" y2="560" style="stroke:#b0b;stroke-width:1;"/>
   <line x1="665" y1="170" x2="655" y2="170" style="stroke:#b0b;stroke-width:1;"/>
   <line x1="880" y1="560" x2="665" y2="170" style="stroke:#b0b;stroke-width:1;"/>
   <line x1="882.5" y1="560" x2="886.03553390593" y2="563.53553390593" style="stroke:#b0b;stroke-width:2;"/>
   <line x1="882.5" y1="560" x2="886.03553390593" y2="556.46446609407" style="stroke:#b0b;stroke-width:2;"/>
   <line x1="660" y1="170" x2="663.53553390593" y2="173.53553390593" style="stroke:#b0b;stroke-width:2;"/>
   <line x1="660" y1="170" x2="663.53553390593" y2="166.46446609407" style="stroke:#b0b;stroke-width:2;"/>
   <line x1="183" y1="190" x2="193" y2="190" style="stroke:#0bf;stroke-width:1;"/>
   <line x1="240" y1="160" x2="250" y2="160" style="stroke:#0bf;stroke-width:1;"/>
   <line x1="193" y1="190" x2="240" y2="160" style="stroke:#0bf;stroke-width:1;"/>
   <line x1="190.5" y1="190" x2="186.96446609407" y2="193.53553390593" style="stroke:#0bf;stroke-width:2;"/>
   <line x1="190.5" y1="190" x2="186.96446609407" y2="186.46446609407" style="stroke:#0bf;stroke-width:2;"/>
   <line x1="245" y1="160" x2="241.46446609407" y2="163.53553390593" style="stroke:#0bf;stroke-width:2;"/>
   <line x1="245" y1="160" x2="241.46446609407" y2="156.46446609407" style="stroke:#0bf;stroke-width:2;"/>
   <line x1="368" y1="260" x2="378" y2="260" style="stroke:#c00;stroke-width:1;"/>
   <line x1="500" y1="170" x2="510" y2="170" style="stroke:#c00;stroke-width:1;"/>
   <line x1="378" y1="260" x2="500" y2="170" style="stroke:#c00;stroke-width:1;"/>
   <line x1="375.5" y1="260" x2="371.96446609407" y2="263.53553390593" style="stroke:#c00;stroke-width:2;"/>
   <line x1="375.5" y1="260" x2="371.96446609407" y2="256.46446609407" style="stroke:#c00;stroke-width:2;"/>
   <line x1="505" y1="170" x2="501.46446609407" y2="173.53553390593" style="stroke:#c00;stroke-width:2;"/>
   <line x1="505" y1="170" x2="501.46446609407" y2="166.46446609407" style="stroke:#c00;stroke-width:2;"/>
   <rect width="137" height="20" x="50" y="390" style="fill:#007;stroke:black;"/>
   <text width="137" height="20" x="55" y="404" style="fill:#fff;" font-family="Arial" font-size="16px"> attendance</text>
   <rect width="137" height="20" x="50" y="410" style="fill:#aea;stroke:black;"/>
   <text width="137" height="20" x="55" y="424" style="fill:black;" font-family="Arial" font-size="16px">attendance_id</text>
   <rect width="137" height="20" x="50" y="430" style="fill:none;stroke:black;"/>
   <text width="137" height="20" x="55" y="444" style="fill:black;" font-family="Arial" font-size="16px">employee_id</text>
   <rect width="137" height="20" x="50" y="450" style="fill:none;stroke:black;"/>
   <text width="137" height="20" x="55" y="464" style="fill:black;" font-family="Arial" font-size="16px">attendance_date</text>
   <rect width="137" height="20" x="50" y="470" style="fill:none;stroke:black;"/>
   <text width="137" height="20" x="55" y="484" style="fill:black;" font-family="Arial" font-size="16px">check_in</text>
   <rect width="137" height="20" x="50" y="490" style="fill:none;stroke:black;"/>
   <text width="137" height="20" x="55" y="504" style="fill:black;" font-family="Arial" font-size="16px">check_out</text>
   <rect width="137" height="20" x="50" y="510" style="fill:none;stroke:black;"/>
   <text width="137" height="20" x="55" y="524" style="fill:black;" font-family="Arial" font-size="16px">attendance_status</text>
   <rect width="137" height="20" x="50" y="530" style="fill:none;stroke:black;"/>
   <text width="137" height="20" x="55" y="544" style="fill:black;" font-family="Arial" font-size="16px">latitude</text>
   <rect width="137" height="20" x="50" y="550" style="fill:none;stroke:black;"/>
   <text width="137" height="20" x="55" y="564" style="fill:black;" font-family="Arial" font-size="16px">longitude</text>
   <rect width="136" height="20" x="270" y="660" style="fill:#007;stroke:black;"/>
   <text width="136" height="20" x="275" y="674" style="fill:#fff;" font-family="Arial" font-size="16px"> departments</text>
   <rect width="136" height="20" x="270" y="680" style="fill:#aea;stroke:black;"/>
   <text width="136" height="20" x="275" y="694" style="fill:black;" font-family="Arial" font-size="16px">department_id</text>
   <rect width="136" height="20" x="270" y="700" style="fill:none;stroke:black;"/>
   <text width="136" height="20" x="275" y="714" style="fill:black;" font-family="Arial" font-size="16px">department_name</text>
   <rect width="145" height="20" x="510" y="140" style="fill:#007;stroke:black;"/>
   <text width="145" height="20" x="515" y="154" style="fill:#fff;" font-family="Arial" font-size="16px"> employees</text>
   <rect width="145" height="20" x="510" y="160" style="fill:#aea;stroke:black;"/>
   <text width="145" height="20" x="515" y="174" style="fill:black;" font-family="Arial" font-size="16px">employee_id</text>
   <rect width="145" height="20" x="510" y="180" style="fill:none;stroke:black;"/>
   <text width="145" height="20" x="515" y="194" style="fill:black;" font-family="Arial" font-size="16px">employee_number</text>
   <rect width="145" height="20" x="510" y="200" style="fill:none;stroke:black;"/>
   <text width="145" height="20" x="515" y="214" style="fill:black;" font-family="Arial" font-size="16px">nik</text>
   <rect width="145" height="20" x="510" y="220" style="fill:none;stroke:black;"/>
   <text width="145" height="20" x="515" y="234" style="fill:black;" font-family="Arial" font-size="16px">full_name</text>
   <rect width="145" height="20" x="510" y="240" style="fill:none;stroke:black;"/>
   <text width="145" height="20" x="515" y="254" style="fill:black;" font-family="Arial" font-size="16px">birth_place</text>
   <rect width="145" height="20" x="510" y="260" style="fill:none;stroke:black;"/>
   <text width="145" height="20" x="515" y="274" style="fill:black;" font-family="Arial" font-size="16px">birth_date</text>
   <rect width="145" height="20" x="510" y="280" style="fill:none;stroke:black;"/>
   <text width="145" height="20" x="515" y="294" style="fill:black;" font-family="Arial" font-size="16px">nationality</text>
   <rect width="145" height="20" x="510" y="300" style="fill:none;stroke:black;"/>
   <text width="145" height="20" x="515" y="314" style="fill:black;" font-family="Arial" font-size="16px">gender</text>
   <rect width="145" height="20" x="510" y="320" style="fill:none;stroke:black;"/>
   <text width="145" height="20" x="515" y="334" style="fill:black;" font-family="Arial" font-size="16px">address</text>
   <rect width="145" height="20" x="510" y="340" style="fill:none;stroke:black;"/>
   <text width="145" height="20" x="515" y="354" style="fill:black;" font-family="Arial" font-size="16px">phone</text>
   <rect width="145" height="20" x="510" y="360" style="fill:none;stroke:black;"/>
   <text width="145" height="20" x="515" y="374" style="fill:black;" font-family="Arial" font-size="16px">marital_status</text>
   <rect width="145" height="20" x="510" y="380" style="fill:none;stroke:black;"/>
   <text width="145" height="20" x="515" y="394" style="fill:black;" font-family="Arial" font-size="16px">education</text>
   <rect width="145" height="20" x="510" y="400" style="fill:none;stroke:black;"/>
   <text width="145" height="20" x="515" y="414" style="fill:black;" font-family="Arial" font-size="16px">department_id</text>
   <rect width="145" height="20" x="510" y="420" style="fill:none;stroke:black;"/>
   <text width="145" height="20" x="515" y="434" style="fill:black;" font-family="Arial" font-size="16px">position_id</text>
   <rect width="145" height="20" x="510" y="440" style="fill:none;stroke:black;"/>
   <text width="145" height="20" x="515" y="454" style="fill:black;" font-family="Arial" font-size="16px">join_date</text>
   <rect width="145" height="20" x="510" y="460" style="fill:none;stroke:black;"/>
   <text width="145" height="20" x="515" y="474" style="fill:black;" font-family="Arial" font-size="16px">employment_status</text>
   <rect width="145" height="20" x="510" y="480" style="fill:none;stroke:black;"/>
   <text width="145" height="20" x="515" y="494" style="fill:black;" font-family="Arial" font-size="16px">photo</text>
   <rect width="145" height="20" x="510" y="500" style="fill:none;stroke:black;"/>
   <text width="145" height="20" x="515" y="514" style="fill:black;" font-family="Arial" font-size="16px">is_active</text>
   <rect width="166" height="20" x="900" y="70" style="fill:#007;stroke:black;"/>
   <text width="166" height="20" x="905" y="84" style="fill:#fff;" font-family="Arial" font-size="16px"> employee_schedules</text>
   <rect width="166" height="20" x="900" y="90" style="fill:#aea;stroke:black;"/>
   <text width="166" height="20" x="905" y="104" style="fill:black;" font-family="Arial" font-size="16px">employee_schedule_id</text>
   <rect width="166" height="20" x="900" y="110" style="fill:none;stroke:black;"/>
   <text width="166" height="20" x="905" y="124" style="fill:black;" font-family="Arial" font-size="16px">employee_id</text>
   <rect width="166" height="20" x="900" y="130" style="fill:none;stroke:black;"/>
   <text width="166" height="20" x="905" y="144" style="fill:black;" font-family="Arial" font-size="16px">schedule_id</text>
   <rect width="166" height="20" x="900" y="150" style="fill:none;stroke:black;"/>
   <text width="166" height="20" x="905" y="164" style="fill:black;" font-family="Arial" font-size="16px">day_of_week</text>
   <rect width="88" height="20" x="1250" y="630" style="fill:#007;stroke:black;"/>
   <text width="88" height="20" x="1255" y="644" style="fill:#fff;" font-family="Arial" font-size="16px"> holidays</text>
   <rect width="88" height="20" x="1250" y="650" style="fill:#aea;stroke:black;"/>
   <text width="88" height="20" x="1255" y="664" style="fill:black;" font-family="Arial" font-size="16px">holiday_id</text>
   <rect width="88" height="20" x="1250" y="670" style="fill:none;stroke:black;"/>
   <text width="88" height="20" x="1255" y="684" style="fill:black;" font-family="Arial" font-size="16px">start_date</text>
   <rect width="88" height="20" x="1250" y="690" style="fill:none;stroke:black;"/>
   <text width="88" height="20" x="1255" y="704" style="fill:black;" font-family="Arial" font-size="16px">end_date</text>
   <rect width="88" height="20" x="1250" y="710" style="fill:none;stroke:black;"/>
   <text width="88" height="20" x="1255" y="724" style="fill:black;" font-family="Arial" font-size="16px">description</text>
   <rect width="115" height="20" x="920" y="220" style="fill:#007;stroke:black;"/>
   <text width="115" height="20" x="925" y="234" style="fill:#fff;" font-family="Arial" font-size="16px"> leave_requests</text>
   <rect width="115" height="20" x="920" y="240" style="fill:#aea;stroke:black;"/>
   <text width="115" height="20" x="925" y="254" style="fill:black;" font-family="Arial" font-size="16px">leave_id</text>
   <rect width="115" height="20" x="920" y="260" style="fill:none;stroke:black;"/>
   <text width="115" height="20" x="925" y="274" style="fill:black;" font-family="Arial" font-size="16px">employee_id</text>
   <rect width="115" height="20" x="920" y="280" style="fill:none;stroke:black;"/>
   <text width="115" height="20" x="925" y="294" style="fill:black;" font-family="Arial" font-size="16px">leave_type</text>
   <rect width="115" height="20" x="920" y="300" style="fill:none;stroke:black;"/>
   <text width="115" height="20" x="925" y="314" style="fill:black;" font-family="Arial" font-size="16px">start_date</text>
   <rect width="115" height="20" x="920" y="320" style="fill:none;stroke:black;"/>
   <text width="115" height="20" x="925" y="334" style="fill:black;" font-family="Arial" font-size="16px">end_date</text>
   <rect width="115" height="20" x="920" y="340" style="fill:none;stroke:black;"/>
   <text width="115" height="20" x="925" y="354" style="fill:black;" font-family="Arial" font-size="16px">total_days</text>
   <rect width="115" height="20" x="920" y="360" style="fill:none;stroke:black;"/>
   <text width="115" height="20" x="925" y="374" style="fill:black;" font-family="Arial" font-size="16px">leave_category</text>
   <rect width="115" height="20" x="920" y="380" style="fill:none;stroke:black;"/>
   <text width="115" height="20" x="925" y="394" style="fill:black;" font-family="Arial" font-size="16px">remarks</text>
   <rect width="115" height="20" x="920" y="400" style="fill:none;stroke:black;"/>
   <text width="115" height="20" x="925" y="414" style="fill:black;" font-family="Arial" font-size="16px">document</text>
   <rect width="115" height="20" x="920" y="420" style="fill:none;stroke:black;"/>
   <text width="115" height="20" x="925" y="434" style="fill:black;" font-family="Arial" font-size="16px">status</text>
   <rect width="115" height="20" x="920" y="440" style="fill:none;stroke:black;"/>
   <text width="115" height="20" x="925" y="454" style="fill:black;" font-family="Arial" font-size="16px">created_at</text>
   <rect width="139" height="20" x="890" y="510" style="fill:#007;stroke:black;"/>
   <text width="139" height="20" x="895" y="524" style="fill:#fff;" font-family="Arial" font-size="16px"> overtime_requests</text>
   <rect width="139" height="20" x="890" y="530" style="fill:#aea;stroke:black;"/>
   <text width="139" height="20" x="895" y="544" style="fill:black;" font-family="Arial" font-size="16px">overtime_id</text>
   <rect width="139" height="20" x="890" y="550" style="fill:none;stroke:black;"/>
   <text width="139" height="20" x="895" y="564" style="fill:black;" font-family="Arial" font-size="16px">employee_id</text>
   <rect width="139" height="20" x="890" y="570" style="fill:none;stroke:black;"/>
   <text width="139" height="20" x="895" y="584" style="fill:black;" font-family="Arial" font-size="16px">start_time</text>
   <rect width="139" height="20" x="890" y="590" style="fill:none;stroke:black;"/>
   <text width="139" height="20" x="895" y="604" style="fill:black;" font-family="Arial" font-size="16px">end_time</text>
   <rect width="139" height="20" x="890" y="610" style="fill:none;stroke:black;"/>
   <text width="139" height="20" x="895" y="624" style="fill:black;" font-family="Arial" font-size="16px">remarks</text>
   <rect width="139" height="20" x="890" y="630" style="fill:none;stroke:black;"/>
   <text width="139" height="20" x="895" y="644" style="fill:black;" font-family="Arial" font-size="16px">status</text>
   <rect width="139" height="20" x="890" y="650" style="fill:none;stroke:black;"/>
   <text width="139" height="20" x="895" y="664" style="fill:black;" font-family="Arial" font-size="16px">created_at</text>
   <rect width="123" height="20" x="60" y="140" style="fill:#007;stroke:black;"/>
   <text width="123" height="20" x="65" y="154" style="fill:#fff;" font-family="Arial" font-size="16px"> password_resets</text>
   <rect width="123" height="20" x="60" y="160" style="fill:#aea;stroke:black;"/>
   <text width="123" height="20" x="65" y="174" style="fill:black;" font-family="Arial" font-size="16px">reset_id</text>
   <rect width="123" height="20" x="60" y="180" style="fill:none;stroke:black;"/>
   <text width="123" height="20" x="65" y="194" style="fill:black;" font-family="Arial" font-size="16px">user_id</text>
   <rect width="123" height="20" x="60" y="200" style="fill:none;stroke:black;"/>
   <text width="123" height="20" x="65" y="214" style="fill:black;" font-family="Arial" font-size="16px">token</text>
   <rect width="123" height="20" x="60" y="220" style="fill:none;stroke:black;"/>
   <text width="123" height="20" x="65" y="234" style="fill:black;" font-family="Arial" font-size="16px">expired_at</text>
   <rect width="110" height="20" x="510" y="650" style="fill:#007;stroke:black;"/>
   <text width="110" height="20" x="515" y="664" style="fill:#fff;" font-family="Arial" font-size="16px"> positions</text>
   <rect width="110" height="20" x="510" y="670" style="fill:#aea;stroke:black;"/>
   <text width="110" height="20" x="515" y="684" style="fill:black;" font-family="Arial" font-size="16px">position_id</text>
   <rect width="110" height="20" x="510" y="690" style="fill:none;stroke:black;"/>
   <text width="110" height="20" x="515" y="704" style="fill:black;" font-family="Arial" font-size="16px">position_name</text>
   <rect width="118" height="20" x="250" y="130" style="fill:#007;stroke:black;"/>
   <text width="118" height="20" x="255" y="144" style="fill:#fff;" font-family="Arial" font-size="16px"> users</text>
   <rect width="118" height="20" x="250" y="150" style="fill:#aea;stroke:black;"/>
   <text width="118" height="20" x="255" y="164" style="fill:black;" font-family="Arial" font-size="16px">user_id</text>
   <rect width="118" height="20" x="250" y="170" style="fill:none;stroke:black;"/>
   <text width="118" height="20" x="255" y="184" style="fill:black;" font-family="Arial" font-size="16px">username</text>
   <rect width="118" height="20" x="250" y="190" style="fill:none;stroke:black;"/>
   <text width="118" height="20" x="255" y="204" style="fill:black;" font-family="Arial" font-size="16px">email</text>
   <rect width="118" height="20" x="250" y="210" style="fill:none;stroke:black;"/>
   <text width="118" height="20" x="255" y="224" style="fill:black;" font-family="Arial" font-size="16px">password_hash</text>
   <rect width="118" height="20" x="250" y="230" style="fill:none;stroke:black;"/>
   <text width="118" height="20" x="255" y="244" style="fill:black;" font-family="Arial" font-size="16px">role</text>
   <rect width="118" height="20" x="250" y="250" style="fill:none;stroke:black;"/>
   <text width="118" height="20" x="255" y="264" style="fill:black;" font-family="Arial" font-size="16px">employee_id</text>
   <rect width="118" height="20" x="250" y="270" style="fill:none;stroke:black;"/>
   <text width="118" height="20" x="255" y="284" style="fill:black;" font-family="Arial" font-size="16px">is_active</text>
   <rect width="118" height="20" x="250" y="290" style="fill:none;stroke:black;"/>
   <text width="118" height="20" x="255" y="304" style="fill:black;" font-family="Arial" font-size="16px">created_at</text>
   <rect width="119" height="20" x="1340" y="290" style="fill:#007;stroke:black;"/>
   <text width="119" height="20" x="1345" y="304" style="fill:#fff;" font-family="Arial" font-size="16px"> work_schedules</text>
   <rect width="119" height="20" x="1340" y="310" style="fill:#aea;stroke:black;"/>
   <text width="119" height="20" x="1345" y="324" style="fill:black;" font-family="Arial" font-size="16px">schedule_id</text>
   <rect width="119" height="20" x="1340" y="330" style="fill:none;stroke:black;"/>
   <text width="119" height="20" x="1345" y="344" style="fill:black;" font-family="Arial" font-size="16px">schedule_code</text>
   <rect width="119" height="20" x="1340" y="350" style="fill:none;stroke:black;"/>
   <text width="119" height="20" x="1345" y="364" style="fill:black;" font-family="Arial" font-size="16px">schedule_name</text>
   <rect width="119" height="20" x="1340" y="370" style="fill:none;stroke:black;"/>
   <text width="119" height="20" x="1345" y="384" style="fill:black;" font-family="Arial" font-size="16px">start_time</text>
   <rect width="119" height="20" x="1340" y="390" style="fill:none;stroke:black;"/>
   <text width="119" height="20" x="1345" y="404" style="fill:black;" font-family="Arial" font-size="16px">end_time</text>
   <rect width="119" height="20" x="1340" y="410" style="fill:none;stroke:black;"/>
   <text width="119" height="20" x="1345" y="424" style="fill:black;" font-family="Arial" font-size="16px">break_time</text>
   <rect width="119" height="20" x="1340" y="430" style="fill:none;stroke:black;"/>
   <text width="119" height="20" x="1345" y="444" style="fill:black;" font-family="Arial" font-size="16px">total_hours</text>
   <rect width="119" height="20" x="1340" y="450" style="fill:none;stroke:black;"/>
   <text width="119" height="20" x="1345" y="464" style="fill:black;" font-family="Arial" font-size="16px">description</text>
</svg>
